<?xml version="1.0" encoding="UTF-8" standalone="no"?>
<!DOCTYPE svg PUBLIC "-//W3C//DTD SVG 1.1//EN"
 "http://www.w3.org/Graphics/SVG/1.1/DTD/svg11.dtd">
<!-- Generated by graphviz version 2.36.0 (20140111.2315)
 -->
<!-- Title: controllers_diagram Pages: 1 -->
<svg width="636pt" height="558pt"
 viewBox="0.00 0.00 636.00 558.00" xmlns="http://www.w3.org/2000/svg" xmlns:xlink="http://www.w3.org/1999/xlink">
<g id="graph0" class="graph" transform="scale(1 1) rotate(0) translate(4 554)">
<title>controllers_diagram</title>
<polygon fill="white" stroke="none" points="-4,4 -4,-554 632,-554 632,4 -4,4"/>
<!-- _diagram_info -->
<g id="node1" class="node"><title>_diagram_info</title>
<text text-anchor="start" x="422" y="-477.6" font-family="Times,serif" font-size="13.00">Controllers diagram</text>
<text text-anchor="start" x="422" y="-463.6" font-family="Times,serif" font-size="13.00">Date: Apr 16 2015 &#45; 19:16</text>
<text text-anchor="start" x="422" y="-449.6" font-family="Times,serif" font-size="13.00">Migration version: 20140206195317</text>
<text text-anchor="start" x="422" y="-435.6" font-family="Times,serif" font-size="13.00">Generated by RailRoady 1.3.0</text>
<text text-anchor="start" x="422" y="-421.6" font-family="Times,serif" font-size="13.00">http://railroady.prestonlee.com</text>
</g>
<!-- UsersController -->
<g id="node2" class="node"><title>UsersController</title>
<path fill="none" stroke="black" d="M48,-180.5C48,-180.5 127,-180.5 127,-180.5 133,-180.5 139,-186.5 139,-192.5 139,-192.5 139,-351.5 139,-351.5 139,-357.5 133,-363.5 127,-363.5 127,-363.5 48,-363.5 48,-363.5 42,-363.5 36,-357.5 36,-351.5 36,-351.5 36,-192.5 36,-192.5 36,-186.5 42,-180.5 48,-180.5"/>
<text text-anchor="middle" x="87.5" y="-348.3" font-family="Times,serif" font-size="14.00">UsersController</text>
<polyline fill="none" stroke="black" points="36,-340.5 139,-340.5 "/>
<text text-anchor="start" x="44" y="-325.3" font-family="Times,serif" font-size="14.00">create</text>
<text text-anchor="start" x="44" y="-310.3" font-family="Times,serif" font-size="14.00">destroy</text>
<text text-anchor="start" x="44" y="-295.3" font-family="Times,serif" font-size="14.00">edit</text>
<text text-anchor="start" x="44" y="-280.3" font-family="Times,serif" font-size="14.00">new</text>
<text text-anchor="start" x="44" y="-265.3" font-family="Times,serif" font-size="14.00">update</text>
<polyline fill="none" stroke="black" points="36,-257.5 139,-257.5 "/>
<polyline fill="none" stroke="black" points="36,-233.5 139,-233.5 "/>
<text text-anchor="start" x="44" y="-218.3" font-family="Times,serif" font-size="14.00">_layout</text>
<text text-anchor="start" x="44" y="-203.3" font-family="Times,serif" font-size="14.00">set_user</text>
<text text-anchor="start" x="44" y="-188.3" font-family="Times,serif" font-size="14.00">user_params</text>
</g>
<!-- TodoListsController -->
<g id="node3" class="node"><title>TodoListsController</title>
<path fill="none" stroke="black" d="M354,-162.5C354,-162.5 457,-162.5 457,-162.5 463,-162.5 469,-168.5 469,-174.5 469,-174.5 469,-363.5 469,-363.5 469,-369.5 463,-375.5 457,-375.5 457,-375.5 354,-375.5 354,-375.5 348,-375.5 342,-369.5 342,-363.5 342,-363.5 342,-174.5 342,-174.5 342,-168.5 348,-162.5 354,-162.5"/>
<text text-anchor="middle" x="405.5" y="-360.3" font-family="Times,serif" font-size="14.00">TodoListsController</text>
<polyline fill="none" stroke="black" points="342,-352.5 469,-352.5 "/>
<text text-anchor="start" x="350" y="-337.3" font-family="Times,serif" font-size="14.00">create</text>
<text text-anchor="start" x="350" y="-322.3" font-family="Times,serif" font-size="14.00">destroy</text>
<text text-anchor="start" x="350" y="-307.3" font-family="Times,serif" font-size="14.00">edit</text>
<text text-anchor="start" x="350" y="-292.3" font-family="Times,serif" font-size="14.00">index</text>
<text text-anchor="start" x="350" y="-277.3" font-family="Times,serif" font-size="14.00">new</text>
<text text-anchor="start" x="350" y="-262.3" font-family="Times,serif" font-size="14.00">show</text>
<text text-anchor="start" x="350" y="-247.3" font-family="Times,serif" font-size="14.00">update</text>
<polyline fill="none" stroke="black" points="342,-239.5 469,-239.5 "/>
<polyline fill="none" stroke="black" points="342,-215.5 469,-215.5 "/>
<text text-anchor="start" x="350" y="-200.3" font-family="Times,serif" font-size="14.00">_layout</text>
<text text-anchor="start" x="350" y="-185.3" font-family="Times,serif" font-size="14.00">set_todo_list</text>
<text text-anchor="start" x="350" y="-170.3" font-family="Times,serif" font-size="14.00">todo_list_params</text>
</g>
<!-- UserSessionsController -->
<g id="node4" class="node"><title>UserSessionsController</title>
<path fill="none" stroke="black" d="M354,-0.5C354,-0.5 474,-0.5 474,-0.5 480,-0.5 486,-6.5 486,-12.5 486,-12.5 486,-111.5 486,-111.5 486,-117.5 480,-123.5 474,-123.5 474,-123.5 354,-123.5 354,-123.5 348,-123.5 342,-117.5 342,-111.5 342,-111.5 342,-12.5 342,-12.5 342,-6.5 348,-0.5 354,-0.5"/>
<text text-anchor="middle" x="414" y="-108.3" font-family="Times,serif" font-size="14.00">UserSessionsController</text>
<polyline fill="none" stroke="black" points="342,-100.5 486,-100.5 "/>
<text text-anchor="start" x="350" y="-85.3" font-family="Times,serif" font-size="14.00">create</text>
<text text-anchor="start" x="350" y="-70.3" font-family="Times,serif" font-size="14.00">destroy</text>
<text text-anchor="start" x="350" y="-55.3" font-family="Times,serif" font-size="14.00">new</text>
<polyline fill="none" stroke="black" points="342,-47.5 486,-47.5 "/>
<polyline fill="none" stroke="black" points="342,-23.5 486,-23.5 "/>
<text text-anchor="start" x="350" y="-8.3" font-family="Times,serif" font-size="14.00">_layout</text>
</g>
<!-- ApplicationController -->
<g id="node5" class="node"><title>ApplicationController</title>
<path fill="none" stroke="black" d="M12,-0.5C12,-0.5 124,-0.5 124,-0.5 130,-0.5 136,-6.5 136,-12.5 136,-12.5 136,-126.5 136,-126.5 136,-132.5 130,-138.5 124,-138.5 124,-138.5 12,-138.5 12,-138.5 6,-138.5 0,-132.5 0,-126.5 0,-126.5 0,-12.5 0,-12.5 0,-6.5 6,-0.5 12,-0.5"/>
<text text-anchor="middle" x="68" y="-123.3" font-family="Times,serif" font-size="14.00">ApplicationController</text>
<polyline fill="none" stroke="black" points="0,-115.5 136,-115.5 "/>
<text text-anchor="start" x="8" y="-100.3" font-family="Times,serif" font-size="14.00">success</text>
<polyline fill="none" stroke="black" points="0,-92.5 136,-92.5 "/>
<polyline fill="none" stroke="black" points="0,-68.5 136,-68.5 "/>
<text text-anchor="start" x="8" y="-53.3" font-family="Times,serif" font-size="14.00">_layout</text>
<text text-anchor="start" x="8" y="-38.3" font-family="Times,serif" font-size="14.00">current_user</text>
<text text-anchor="start" x="8" y="-23.3" font-family="Times,serif" font-size="14.00">logged_in?</text>
<text text-anchor="start" x="8" y="-8.3" font-family="Times,serif" font-size="14.00">require_user</text>
</g>
<!-- PasswordResetsController -->
<g id="node6" class="node"><title>PasswordResetsController</title>
<path fill="none" stroke="black" d="M156,-396.5C156,-396.5 291,-396.5 291,-396.5 297,-396.5 303,-402.5 303,-408.5 303,-408.5 303,-537.5 303,-537.5 303,-543.5 297,-549.5 291,-549.5 291,-549.5 156,-549.5 156,-549.5 150,-549.5 144,-543.5 144,-537.5 144,-537.5 144,-408.5 144,-408.5 144,-402.5 150,-396.5 156,-396.5"/>
<text text-anchor="middle" x="223.5" y="-534.3" font-family="Times,serif" font-size="14.00">PasswordResetsController</text>
<polyline fill="none" stroke="black" points="144,-526.5 303,-526.5 "/>
<text text-anchor="start" x="152" y="-511.3" font-family="Times,serif" font-size="14.00">create</text>
<text text-anchor="start" x="152" y="-496.3" font-family="Times,serif" font-size="14.00">edit</text>
<text text-anchor="start" x="152" y="-481.3" font-family="Times,serif" font-size="14.00">new</text>
<text text-anchor="start" x="152" y="-466.3" font-family="Times,serif" font-size="14.00">update</text>
<polyline fill="none" stroke="black" points="144,-458.5 303,-458.5 "/>
<polyline fill="none" stroke="black" points="144,-434.5 303,-434.5 "/>
<text text-anchor="start" x="152" y="-419.3" font-family="Times,serif" font-size="14.00">_layout</text>
<text text-anchor="start" x="152" y="-404.3" font-family="Times,serif" font-size="14.00">user_params</text>
</g>
<!-- TodoItemsController -->
<g id="node7" class="node"><title>TodoItemsController</title>
<path fill="none" stroke="black" d="M192,-126.5C192,-126.5 299,-126.5 299,-126.5 305,-126.5 311,-132.5 311,-138.5 311,-138.5 311,-342.5 311,-342.5 311,-348.5 305,-354.5 299,-354.5 299,-354.5 192,-354.5 192,-354.5 186,-354.5 180,-348.5 180,-342.5 180,-342.5 180,-138.5 180,-138.5 180,-132.5 186,-126.5 192,-126.5"/>
<text text-anchor="middle" x="245.5" y="-339.3" font-family="Times,serif" font-size="14.00">TodoItemsController</text>
<polyline fill="none" stroke="black" points="180,-331.5 311,-331.5 "/>
<text text-anchor="start" x="188" y="-316.3" font-family="Times,serif" font-size="14.00">complete</text>
<text text-anchor="start" x="188" y="-301.3" font-family="Times,serif" font-size="14.00">create</text>
<text text-anchor="start" x="188" y="-286.3" font-family="Times,serif" font-size="14.00">destroy</text>
<text text-anchor="start" x="188" y="-271.3" font-family="Times,serif" font-size="14.00">edit</text>
<text text-anchor="start" x="188" y="-256.3" font-family="Times,serif" font-size="14.00">index</text>
<text text-anchor="start" x="188" y="-241.3" font-family="Times,serif" font-size="14.00">new</text>
<text text-anchor="start" x="188" y="-226.3" font-family="Times,serif" font-size="14.00">update</text>
<text text-anchor="start" x="188" y="-211.3" font-family="Times,serif" font-size="14.00">url_options</text>
<polyline fill="none" stroke="black" points="180,-203.5 311,-203.5 "/>
<polyline fill="none" stroke="black" points="180,-179.5 311,-179.5 "/>
<text text-anchor="start" x="188" y="-164.3" font-family="Times,serif" font-size="14.00">_layout</text>
<text text-anchor="start" x="188" y="-149.3" font-family="Times,serif" font-size="14.00">find_todo_list</text>
<text text-anchor="start" x="188" y="-134.3" font-family="Times,serif" font-size="14.00">todo_item_params</text>
</g>
</g>
</svg>
