<?xml version="1.0" encoding="UTF-8" standalone="no"?>
<!DOCTYPE svg PUBLIC "-//W3C//DTD SVG 1.1//EN"
 "http://www.w3.org/Graphics/SVG/1.1/DTD/svg11.dtd">
<!-- Generated by graphviz version 2.36.0 (20140111.2315)
 -->
<!-- Title: models_diagram Pages: 1 -->
<svg width="414pt" height="476pt"
 viewBox="0.00 0.00 414.00 476.00" xmlns="http://www.w3.org/2000/svg" xmlns:xlink="http://www.w3.org/1999/xlink">
<g id="graph0" class="graph" transform="scale(1 1) rotate(0) translate(4 472)">
<title>models_diagram</title>
<polygon fill="white" stroke="none" points="-4,4 -4,-472 410,-472 410,4 -4,4"/>
<!-- _diagram_info -->
<g id="node1" class="node"><title>_diagram_info</title>
<text text-anchor="start" x="7" y="-416.6" font-family="Times,serif" font-size="13.00">Models diagram</text>
<text text-anchor="start" x="7" y="-402.6" font-family="Times,serif" font-size="13.00">Date: Apr 16 2015 &#45; 19:16</text>
<text text-anchor="start" x="7" y="-388.6" font-family="Times,serif" font-size="13.00">Migration version: 20140206195317</text>
<text text-anchor="start" x="7" y="-374.6" font-family="Times,serif" font-size="13.00">Generated by RailRoady 1.3.0</text>
<text text-anchor="start" x="7" y="-360.6" font-family="Times,serif" font-size="13.00">http://railroady.prestonlee.com</text>
</g>
<!-- TodoItem -->
<g id="node2" class="node"><title>TodoItem</title>
<path fill="none" stroke="black" d="M258.5,-0.5C258.5,-0.5 379.5,-0.5 379.5,-0.5 385.5,-0.5 391.5,-6.5 391.5,-12.5 391.5,-12.5 391.5,-109.5 391.5,-109.5 391.5,-115.5 385.5,-121.5 379.5,-121.5 379.5,-121.5 258.5,-121.5 258.5,-121.5 252.5,-121.5 246.5,-115.5 246.5,-109.5 246.5,-109.5 246.5,-12.5 246.5,-12.5 246.5,-6.5 252.5,-0.5 258.5,-0.5"/>
<text text-anchor="middle" x="319" y="-106.3" font-family="Times,serif" font-size="14.00">TodoItem</text>
<polyline fill="none" stroke="black" points="246.5,-98.5 391.5,-98.5 "/>
<text text-anchor="start" x="254.5" y="-83.3" font-family="Times,serif" font-size="14.00">id :integer</text>
<text text-anchor="start" x="254.5" y="-68.3" font-family="Times,serif" font-size="14.00">todo_list_id :integer</text>
<text text-anchor="start" x="254.5" y="-53.3" font-family="Times,serif" font-size="14.00">content :string</text>
<text text-anchor="start" x="254.5" y="-38.3" font-family="Times,serif" font-size="14.00">created_at :datetime</text>
<text text-anchor="start" x="254.5" y="-23.3" font-family="Times,serif" font-size="14.00">updated_at :datetime</text>
<text text-anchor="start" x="254.5" y="-8.3" font-family="Times,serif" font-size="14.00">completed_at :datetime</text>
</g>
<!-- TodoList -->
<g id="node3" class="node"><title>TodoList</title>
<path fill="none" stroke="black" d="M265.5,-158.5C265.5,-158.5 372.5,-158.5 372.5,-158.5 378.5,-158.5 384.5,-164.5 384.5,-170.5 384.5,-170.5 384.5,-267.5 384.5,-267.5 384.5,-273.5 378.5,-279.5 372.5,-279.5 372.5,-279.5 265.5,-279.5 265.5,-279.5 259.5,-279.5 253.5,-273.5 253.5,-267.5 253.5,-267.5 253.5,-170.5 253.5,-170.5 253.5,-164.5 259.5,-158.5 265.5,-158.5"/>
<text text-anchor="middle" x="319" y="-264.3" font-family="Times,serif" font-size="14.00">TodoList</text>
<polyline fill="none" stroke="black" points="253.5,-256.5 384.5,-256.5 "/>
<text text-anchor="start" x="261.5" y="-241.3" font-family="Times,serif" font-size="14.00">id :integer</text>
<text text-anchor="start" x="261.5" y="-226.3" font-family="Times,serif" font-size="14.00">title :string</text>
<text text-anchor="start" x="261.5" y="-211.3" font-family="Times,serif" font-size="14.00">description :text</text>
<text text-anchor="start" x="261.5" y="-196.3" font-family="Times,serif" font-size="14.00">created_at :datetime</text>
<text text-anchor="start" x="261.5" y="-181.3" font-family="Times,serif" font-size="14.00">updated_at :datetime</text>
<text text-anchor="start" x="261.5" y="-166.3" font-family="Times,serif" font-size="14.00">user_id :integer</text>
</g>
<!-- TodoList&#45;&gt;TodoItem -->
<g id="edge1" class="edge"><title>TodoList&#45;&gt;TodoItem</title>
<path fill="none" stroke="#77a1ab" d="M319,-149.936C319,-143.914 319,-137.812 319,-131.776"/>
<ellipse fill="none" stroke="#77a1ab" cx="319" cy="-154.132" rx="4" ry="4"/>
<polygon fill="#77a1ab" stroke="#77a1ab" points="319,-131.707 323.5,-121.707 319,-126.707 319,-121.707 319,-121.707 319,-121.707 319,-126.707 314.5,-121.707 319,-131.707 319,-131.707"/>
</g>
<!-- User -->
<g id="node4" class="node"><title>User</title>
<path fill="none" stroke="black" d="M243.5,-316.5C243.5,-316.5 394.5,-316.5 394.5,-316.5 400.5,-316.5 406.5,-322.5 406.5,-328.5 406.5,-328.5 406.5,-455.5 406.5,-455.5 406.5,-461.5 400.5,-467.5 394.5,-467.5 394.5,-467.5 243.5,-467.5 243.5,-467.5 237.5,-467.5 231.5,-461.5 231.5,-455.5 231.5,-455.5 231.5,-328.5 231.5,-328.5 231.5,-322.5 237.5,-316.5 243.5,-316.5"/>
<text text-anchor="middle" x="319" y="-452.3" font-family="Times,serif" font-size="14.00">User</text>
<polyline fill="none" stroke="black" points="231.5,-444.5 406.5,-444.5 "/>
<text text-anchor="start" x="239.5" y="-429.3" font-family="Times,serif" font-size="14.00">id :integer</text>
<text text-anchor="start" x="239.5" y="-414.3" font-family="Times,serif" font-size="14.00">first_name :string</text>
<text text-anchor="start" x="239.5" y="-399.3" font-family="Times,serif" font-size="14.00">last_name :string</text>
<text text-anchor="start" x="239.5" y="-384.3" font-family="Times,serif" font-size="14.00">email :string</text>
<text text-anchor="start" x="239.5" y="-369.3" font-family="Times,serif" font-size="14.00">password_digest :string</text>
<text text-anchor="start" x="239.5" y="-354.3" font-family="Times,serif" font-size="14.00">created_at :datetime</text>
<text text-anchor="start" x="239.5" y="-339.3" font-family="Times,serif" font-size="14.00">updated_at :datetime</text>
<text text-anchor="start" x="239.5" y="-324.3" font-family="Times,serif" font-size="14.00">password_reset_token :string</text>
</g>
<!-- User&#45;&gt;TodoList -->
<g id="edge2" class="edge"><title>User&#45;&gt;TodoList</title>
<path fill="none" stroke="#9be654" d="M319,-308.369C319,-302.155 319,-295.921 319,-289.798"/>
<ellipse fill="none" stroke="#9be654" cx="319" cy="-312.494" rx="4" ry="4"/>
<polygon fill="#9be654" stroke="#9be654" points="319,-289.622 323.5,-279.622 319,-284.622 319,-279.622 319,-279.622 319,-279.622 319,-284.622 314.5,-279.622 319,-289.622 319,-289.622"/>
</g>
</g>
</svg>
